<?xml version="1.0" encoding="utf-8"?>
<!-- Generator: Adobe Illustrator 27.7.0, SVG Export Plug-In . SVG Version: 6.00 Build 0)  -->
<svg version="1.1" id="Layer_1" xmlns="http://www.w3.org/2000/svg" xmlns:xlink="http://www.w3.org/1999/xlink" x="0px" y="0px"
	 viewBox="0 0 24 24" style="enable-background:new 0 0 24 24;" xml:space="preserve">
<style type="text/css">
	.st0{fill:none;}
    rect, path, polygon { fill: #666; }
</style>
<g>
	<rect class="st0" width="24" height="24"/>
</g>
<path d="M4,10"/>
<path d="M18.9,13.1c1-1.4-0.4-2.6-1.4-3.5s-1-2-1-2l0,0c-0.3-1.8-2.1-3.2-4.4-3.2c-1.9,0-3.5,1-4.2,2.4C7.3,7.1,6.6,7.6,6.6,8.3
	c0,1-0.9,0.8-0.9,0.8s0.6,0.3,1.2,0.1C6.8,9.3,6.6,9.5,6.4,9.7c-1,0.9-2.4,2-1.4,3.5c1,1.4-2,2.5-0.5,3.6c0.3,0.2,0.7,0.3,1.3,0.4
	c0.3-0.3,0.6-0.5,1-0.7l3.5-1.4v-0.2l-0.7-0.5c-0.4-0.3-0.6-0.7-0.7-1.2L8.7,12l0,0c-0.1-0.2-0.1-0.4-0.1-0.5v-0.1l0,0
	c0-0.3-0.1-0.6-0.1-0.8c0-0.1,0-0.2,0-0.2C8.6,10,8.8,9.9,8.9,9.8C9,9.6,9.6,7.9,9.8,7.6c0.5-0.5,1.3-0.5,1.8,0.1
	c0.5,0.7,1.2,1.4,2.3,1.7c0.6,0.2,1,0.5,1.2,0.8c0,0.1,0,0.2,0,0.3c0,0.3,0,0.6-0.1,0.8l0,0v0.6L14.8,13c-0.1,0.6-0.4,1.1-0.8,1.4
	l-0.6,0.4V15l3.5,1.4c0.4,0.2,0.8,0.4,1,0.7c0.5-0.1,1-0.2,1.3-0.4C20.8,15.6,17.9,14.5,18.9,13.1z"/>
<polygon points="19.3,6.8 18.4,7.2 19.3,7.7 19.9,8.8 20.3,7.7 21.3,7.2 20.3,6.8 19.9,5.8 "/>
<polygon points="17.6,5.8 18.4,4.3 19.9,3.5 18.4,2.9 17.6,1.3 16.9,2.9 15.4,3.5 16.9,4.3 "/>
<g>
	<path d="M8.2,16.9L7,17.4c-0.9,0.3-1.5,1.2-1.5,2.2v1.2c1,0.7,2.2,1.3,3.4,1.7L8.2,16.9z"/>
	<path d="M18.4,20.8v-1.2c0-1-0.6-1.9-1.5-2.2L15.8,17L15,22.5C16.2,22.1,17.3,21.6,18.4,20.8z"/>
</g>
<path d="M12.1,19.9c-1.3,0-2.4-1.2-3.2-3.1H8.8l0.8,5.8c0.8,0.2,1.6,0.3,2.4,0.3c0.8,0,1.6-0.1,2.4-0.3l0.8-5.8c0,0,0-0.1-0.1,0
	C14.5,18.7,13.4,19.9,12.1,19.9z"/>
</svg>
